<svg width="145" height="145" viewBox="0 0 145 145" fill="none" xmlns="http://www.w3.org/2000/svg">
<g clip-path="url(#clip0)">
<path d="M105.751 0H39.2502C17.6073 0 0 17.6073 0 39.2502V105.75C0 127.393 17.6073 145 39.2502 145H105.751C127.393 145 145 127.393 145 105.75V39.2502C145 17.6073 127.393 0 105.751 0ZM136.499 105.75C136.499 122.705 122.705 136.499 105.75 136.499H39.2502C22.2945 136.499 8.50052 122.705 8.50052 105.75V105.377L32.8814 82.9332C33.5717 82.2982 34.6537 82.2982 35.344 82.9321L54 100.059C56.1638 102.046 59.081 103.016 62.006 102.725C64.9298 102.433 67.597 100.902 69.3261 98.5259L102.248 53.2566C102.685 52.657 103.284 52.532 103.601 52.5109C103.919 52.4921 104.529 52.5353 105.04 53.074L136.498 86.2232V105.75H136.499ZM136.499 73.8751L111.206 47.223C109.09 44.9928 106.119 43.829 103.047 44.0292C99.9796 44.2295 97.1829 45.7705 95.3742 48.2574L62.4507 93.5267C62.0337 94.0998 61.4628 94.2369 61.1597 94.2668C60.8577 94.2967 60.2714 94.2768 59.7492 93.7967L41.0932 76.6706C37.1737 73.0708 31.0384 73.0764 27.1244 76.6795L8.50052 93.8232V39.2502C8.50052 22.2945 22.2945 8.50052 39.2502 8.50052H105.751C122.705 8.50052 136.499 22.2945 136.499 39.2502V73.8751Z" fill="white"/>
<path d="M40.4726 24.5635C32.2365 24.5635 25.5347 31.2652 25.5347 39.5024C25.5347 47.7386 32.2365 54.4403 40.4726 54.4403C48.7098 54.4403 55.4104 47.7386 55.4104 39.5024C55.4116 31.2652 48.7098 24.5635 40.4726 24.5635ZM40.4726 45.9387C36.9237 45.9387 34.0352 43.0513 34.0352 39.5013C34.0352 35.9524 36.9237 33.064 40.4726 33.064C44.0226 33.064 46.9099 35.9513 46.9099 39.5013C46.9099 43.0513 44.0226 45.9387 40.4726 45.9387Z" fill="white"/>
</g>
<defs>
<clipPath id="clip0">
<rect width="145" height="145" fill="white"/>
</clipPath>
</defs>
</svg>
